<svg xmlns="http://www.w3.org/2000/svg" width="1200" height="720" viewBox="0 0 1200 720" role="img" aria-label="The panel dialog — type tiles, mapping and a live preview (mock)">
<rect width="1200" height="720" fill="#1e1e1e"/>
<rect x="60" y="20" width="1080" height="620" rx="12" fill="#232323" stroke="#3a3a3a" stroke-width="2"/><text x="90" y="60" fill="#dcddde" font-family="sans-serif" font-size="22" font-weight="700" text-anchor="start">New panel</text><rect x="90" y="84" width="74" height="68" rx="8" fill="#232323" stroke="#232323" stroke-width="2"/><rect x="115" y="96" width="24" height="22" rx="4" fill="none" stroke="#8b8e94" stroke-width="2"/><text x="127" y="140" fill="#8b8e94" font-family="sans-serif" font-size="12" font-weight="400" text-anchor="middle">Stat</text><rect x="174" y="84" width="74" height="68" rx="8" fill="#232323" stroke="#232323" stroke-width="2"/><rect x="199" y="96" width="24" height="22" rx="4" fill="none" stroke="#8b8e94" stroke-width="2"/><text x="211" y="140" fill="#8b8e94" font-family="sans-serif" font-size="12" font-weight="400" text-anchor="middle">Bar</text><rect x="258" y="84" width="74" height="68" rx="8" fill="#34306b" stroke="#7f6df2" stroke-width="2"/><rect x="283" y="96" width="24" height="22" rx="4" fill="none" stroke="#7f6df2" stroke-width="2"/><text x="295" y="140" fill="#dcddde" font-family="sans-serif" font-size="12" font-weight="400" text-anchor="middle">Line</text><rect x="342" y="84" width="74" height="68" rx="8" fill="#232323" stroke="#232323" stroke-width="2"/><rect x="367" y="96" width="24" height="22" rx="4" fill="none" stroke="#8b8e94" stroke-width="2"/><text x="379" y="140" fill="#8b8e94" font-family="sans-serif" font-size="12" font-weight="400" text-anchor="middle">Area</text><rect x="426" y="84" width="74" height="68" rx="8" fill="#232323" stroke="#232323" stroke-width="2"/><rect x="451" y="96" width="24" height="22" rx="4" fill="none" stroke="#8b8e94" stroke-width="2"/><text x="463" y="140" fill="#8b8e94" font-family="sans-serif" font-size="12" font-weight="400" text-anchor="middle">Scatter</text><rect x="510" y="84" width="74" height="68" rx="8" fill="#232323" stroke="#232323" stroke-width="2"/><rect x="535" y="96" width="24" height="22" rx="4" fill="none" stroke="#8b8e94" stroke-width="2"/><text x="547" y="140" fill="#8b8e94" font-family="sans-serif" font-size="12" font-weight="400" text-anchor="middle">Bubble</text><rect x="90" y="162" width="74" height="68" rx="8" fill="#232323" stroke="#232323" stroke-width="2"/><rect x="115" y="174" width="24" height="22" rx="4" fill="none" stroke="#8b8e94" stroke-width="2"/><text x="127" y="218" fill="#8b8e94" font-family="sans-serif" font-size="12" font-weight="400" text-anchor="middle">Pie</text><rect x="174" y="162" width="74" height="68" rx="8" fill="#232323" stroke="#232323" stroke-width="2"/><rect x="199" y="174" width="24" height="22" rx="4" fill="none" stroke="#8b8e94" stroke-width="2"/><text x="211" y="218" fill="#8b8e94" font-family="sans-serif" font-size="12" font-weight="400" text-anchor="middle">Donut</text><rect x="258" y="162" width="74" height="68" rx="8" fill="#232323" stroke="#232323" stroke-width="2"/><rect x="283" y="174" width="24" height="22" rx="4" fill="none" stroke="#8b8e94" stroke-width="2"/><text x="295" y="218" fill="#8b8e94" font-family="sans-serif" font-size="12" font-weight="400" text-anchor="middle">Table</text><rect x="342" y="162" width="74" height="68" rx="8" fill="#232323" stroke="#232323" stroke-width="2"/><rect x="367" y="174" width="24" height="22" rx="4" fill="none" stroke="#8b8e94" stroke-width="2"/><text x="379" y="218" fill="#8b8e94" font-family="sans-serif" font-size="12" font-weight="400" text-anchor="middle">Heatmap</text><rect x="426" y="162" width="74" height="68" rx="8" fill="#232323" stroke="#232323" stroke-width="2"/><rect x="451" y="174" width="24" height="22" rx="4" fill="none" stroke="#8b8e94" stroke-width="2"/><text x="463" y="218" fill="#8b8e94" font-family="sans-serif" font-size="12" font-weight="400" text-anchor="middle">Calendar</text><rect x="510" y="162" width="74" height="68" rx="8" fill="#232323" stroke="#232323" stroke-width="2"/><rect x="535" y="174" width="24" height="22" rx="4" fill="none" stroke="#8b8e94" stroke-width="2"/><text x="547" y="218" fill="#8b8e94" font-family="sans-serif" font-size="12" font-weight="400" text-anchor="middle">Tasks</text><text x="90" y="290" fill="#dcddde" font-family="sans-serif" font-size="15" font-weight="400" text-anchor="start">Title</text><rect x="330" y="270" width="260" height="32" rx="6" fill="#2d2d2d" stroke="#3a3a3a" stroke-width="2"/><text x="342" y="291" fill="#8b8e94" font-family="sans-serif" font-size="13" font-weight="400" text-anchor="start">Hours this month</text><text x="90" y="336" fill="#8b8e94" font-family="sans-serif" font-size="13" font-weight="700" text-anchor="start">DATA</text><text x="90" y="382" fill="#dcddde" font-family="sans-serif" font-size="15" font-weight="400" text-anchor="start">Category</text><rect x="330" y="362" width="260" height="32" rx="6" fill="#2d2d2d" stroke="#3a3a3a" stroke-width="2"/><text x="342" y="383" fill="#8b8e94" font-family="sans-serif" font-size="13" font-weight="400" text-anchor="start">date · date</text><text x="90" y="428" fill="#dcddde" font-family="sans-serif" font-size="15" font-weight="400" text-anchor="start">Series</text><rect x="330" y="408" width="260" height="32" rx="6" fill="#2d2d2d" stroke="#3a3a3a" stroke-width="2"/><text x="342" y="429" fill="#8b8e94" font-family="sans-serif" font-size="13" font-weight="400" text-anchor="start">realWorkingHours ×   + Add a field…</text><text x="90" y="474" fill="#8b8e94" font-family="sans-serif" font-size="13" font-weight="700" text-anchor="start">TRANSFORMS</text><text x="90" y="520" fill="#dcddde" font-family="sans-serif" font-size="15" font-weight="400" text-anchor="start">1. Filter</text><rect x="330" y="500" width="260" height="32" rx="6" fill="#2d2d2d" stroke="#3a3a3a" stroke-width="2"/><text x="342" y="521" fill="#8b8e94" font-family="sans-serif" font-size="13" font-weight="400" text-anchor="start">date   in the last … days   30   🗑</text><text x="90" y="566" fill="#dcddde" font-family="sans-serif" font-size="15" font-weight="400" text-anchor="start">Add transform</text><rect x="330" y="546" width="260" height="32" rx="6" fill="#2d2d2d" stroke="#3a3a3a" stroke-width="2"/><text x="342" y="567" fill="#8b8e94" font-family="sans-serif" font-size="13" font-weight="400" text-anchor="start">—</text><text x="640" y="104" fill="#8b8e94" font-family="sans-serif" font-size="13" font-weight="600" text-anchor="start">PREVIEW</text><rect x="640" y="116" width="470" height="330" rx="10" fill="#262626" stroke="#3a3a3a" stroke-width="2"/><text x="656" y="146" fill="#dcddde" font-family="sans-serif" font-size="15" font-weight="600" text-anchor="start">Hours this month</text><polyline points="668,320 715,272 761,308 808,248 855,284 901,224 948,260 995,212 1041,248 1088,236" fill="none" stroke="#4fb6d8" stroke-width="3"/><line x1="668" y1="416" x2="1088" y2="416" stroke="#3a3a3a" stroke-width="2"/><rect x="870" y="584" width="110" height="38" rx="6" fill="#2d2d2d" stroke="#3a3a3a" stroke-width="2"/><text x="925" y="608" fill="#dcddde" font-family="sans-serif" font-size="15" font-weight="400" text-anchor="middle">Cancel</text><rect x="994" y="584" width="120" height="38" rx="6" fill="#7f6df2" stroke="#7f6df2" stroke-width="2"/><text x="1054" y="608" fill="#fff" font-family="sans-serif" font-size="15" font-weight="600" text-anchor="middle">Save</text>
<rect x="0" y="656" width="1200" height="64" fill="#111" opacity="0.92"/>
<text x="24" y="684" fill="#e0a351" font-family="sans-serif" font-size="18" font-weight="700" text-anchor="start">MOCK · The panel dialog — type tiles, mapping and a live preview</text>
<text x="24" y="706" fill="#8b8e94" font-family="sans-serif" font-size="14" font-weight="400" text-anchor="start">Replace with: the “Add panel” dialog with a type selected, a field mapped, one transform and the live preview</text>
</svg>