<svg xmlns="http://www.w3.org/2000/svg" width="1200" height="938" viewBox="0 0 1200 938" role="img" aria-label="Academic research — the system's canvas flow: 3 steps">
<defs>
<pattern id="dots" width="24" height="24" patternUnits="userSpaceOnUse"><circle cx="2" cy="2" r="1.2" fill="#2e2e2e"/></pattern>
<marker id="arrow" viewBox="0 0 10 10" refX="9" refY="5" markerWidth="8" markerHeight="8" orient="auto-start-reverse"><path d="M0,0 L10,5 L0,10 z" fill="#8b8e94"/></marker>
</defs>
<rect width="1200" height="938" fill="#1e1e1e"/>
<text x="32" y="50" fill="#dcddde" font-family="Inter, Segoe UI, sans-serif" font-size="28" font-weight="700">Academic research</text>
<rect x="296.2" y="28" width="64" height="28" rx="14" fill="#fb464c" fill-opacity="0.18" stroke="#fb464c" stroke-width="1.5"/>
<text x="328.2" y="47" fill="#fb464c" font-family="Inter, Segoe UI, sans-serif" font-size="14" font-weight="700" text-anchor="middle">hard</text>
<text x="1168" y="48" fill="#8b8e94" font-family="Inter, Segoe UI, sans-serif" font-size="15" text-anchor="end">3 steps · 1 branch point</text>
<text x="32" y="86" fill="#8b8e94" font-family="Inter, Segoe UI, sans-serif" font-size="16">Academic research, drawn as a flow: one capture asks whether you're taking notes on a source or recording a finding,</text>
<text x="32" y="110" fill="#8b8e94" font-family="Inter, Segoe UI, sans-serif" font-size="16">and branches to a literature note (author, venue, method, claims) or a finding (claim, evidence, tensions) — cross…</text>
<rect x="24" y="138" width="1152" height="764.0" rx="12" fill="#191919" stroke="#3a3a3a" stroke-width="1.5"/>
<rect x="25" y="139" width="1150" height="762.0" rx="11" fill="url(#dots)"/>
<g transform="translate(90.0,150.0) scale(1.0000) translate(630,370)">
<path d="M-220,145.0 C-120.0,145.0 -120.0,-154.0 -24,-154.0" fill="none" stroke="#8b8e94" stroke-width="3" marker-end="url(#arrow)"/>
<rect x="-179.8" y="-169.0" width="133.8" height="30" rx="15" fill="#1e1e1e" stroke="#3a3a3a" stroke-width="2"/>
<text x="-112.9" y="-149.0" fill="#dcddde" font-family="Inter, Segoe UI, sans-serif" font-size="14" text-anchor="middle">From a source</text>
<path d="M-220,145.0 C-120.0,145.0 -120.0,166.0 -24,166.0" fill="none" stroke="#8b8e94" stroke-width="3" marker-end="url(#arrow)"/>
<rect x="-188.39999999999998" y="151.0" width="142.39999999999998" height="30" rx="15" fill="#1e1e1e" stroke="#3a3a3a" stroke-width="2"/>
<text x="-117.19999999999999" y="171.0" fill="#dcddde" font-family="Inter, Segoe UI, sans-serif" font-size="14" text-anchor="middle">My own finding</text>
<rect x="-560" y="20" width="340" height="250" rx="12" fill="#262626" stroke="#fb464c" stroke-width="3"/>
<path d="M-560,32 a12,12 0 0 1 12,-12 h316 a12,12 0 0 1 12,12 v34 h-340 z" fill="#fb464c" fill-opacity="0.16"/>
<text x="-544" y="51" fill="#dcddde" font-family="Inter, Segoe UI, sans-serif" font-size="20" font-weight="700">Research capture</text>
<rect x="-284" y="33" width="50" height="22" rx="11" fill="#7f6df2"/>
<text x="-259" y="49" fill="#fff" font-family="Inter, Segoe UI, sans-serif" font-size="12" font-weight="700" text-anchor="middle">ROOT</text>
<text x="-544" y="90" fill="#fb464c" font-family="Inter, Segoe UI, sans-serif" font-size="13.5" font-weight="600">capture · → Research</text>
<circle cx="-539" cy="111" r="3.5" fill="#8b8e94"/>
<text x="-528" y="116" fill="#dcddde" font-family="Inter, Segoe UI, sans-serif" font-size="14.5">Title<tspan fill="#5c5f66" font-size="12.5">  prompt</tspan></text>
<circle cx="-539" cy="133" r="3.5" fill="#8b8e94"/>
<text x="-528" y="138" fill="#dcddde" font-family="Inter, Segoe UI, sans-serif" font-size="14.5">What is this?<tspan fill="#5c5f66" font-size="12.5">  selector</tspan></text>
<circle cx="-539" cy="155" r="3.5" fill="#8b8e94"/>
<text x="-528" y="160" fill="#dcddde" font-family="Inter, Segoe UI, sans-serif" font-size="14.5">Tags<tspan fill="#5c5f66" font-size="12.5">  tags</tspan></text>
<circle cx="-539" cy="177" r="3.5" fill="#8b8e94"/>
<text x="-528" y="182" fill="#dcddde" font-family="Inter, Segoe UI, sans-serif" font-size="14.5">Zettel id<tspan fill="#5c5f66" font-size="12.5">  zettel-id · automatic</tspan></text>
<rect x="-20" y="-300" width="340" height="292" rx="12" fill="#262626" stroke="#e0de71" stroke-width="3"/>
<path d="M-20,-288 a12,12 0 0 1 12,-12 h316 a12,12 0 0 1 12,12 v34 h-340 z" fill="#e0de71" fill-opacity="0.16"/>
<text x="-4" y="-269" fill="#dcddde" font-family="Inter, Segoe UI, sans-serif" font-size="20" font-weight="700">Literature note</text>
<text x="-4" y="-230" fill="#e0de71" font-family="Inter, Segoe UI, sans-serif" font-size="13.5" font-weight="600">process · → Research/Literature</text>
<circle cx="1" cy="-209" r="3.5" fill="#8b8e94"/>
<text x="12" y="-204" fill="#dcddde" font-family="Inter, Segoe UI, sans-serif" font-size="14.5">Author<tspan fill="#5c5f66" font-size="12.5">  prompt</tspan></text>
<circle cx="1" cy="-187" r="3.5" fill="#8b8e94"/>
<text x="12" y="-182" fill="#dcddde" font-family="Inter, Segoe UI, sans-serif" font-size="14.5">Source<tspan fill="#5c5f66" font-size="12.5">  prompt</tspan></text>
<circle cx="1" cy="-165" r="3.5" fill="#8b8e94"/>
<text x="12" y="-160" fill="#dcddde" font-family="Inter, Segoe UI, sans-serif" font-size="14.5">Year<tspan fill="#5c5f66" font-size="12.5">  prompt</tspan></text>
<circle cx="1" cy="-143" r="3.5" fill="#8b8e94"/>
<text x="12" y="-138" fill="#dcddde" font-family="Inter, Segoe UI, sans-serif" font-size="14.5">Venue<tspan fill="#5c5f66" font-size="12.5">  prompt</tspan></text>
<circle cx="1" cy="-121" r="3.5" fill="#8b8e94"/>
<text x="12" y="-116" fill="#dcddde" font-family="Inter, Segoe UI, sans-serif" font-size="14.5">In your own words<tspan fill="#5c5f66" font-size="12.5">  prompt</tspan></text>
<circle cx="1" cy="-99" r="3.5" fill="#8b8e94"/>
<text x="12" y="-94" fill="#dcddde" font-family="Inter, Segoe UI, sans-serif" font-size="14.5">Method / evidence<tspan fill="#5c5f66" font-size="12.5">  prompt</tspan></text>
<line x1="-4" y1="-64" x2="304" y2="-64" stroke="#3a3a3a" stroke-width="1.5"/>
<text x="-4" y="-46" fill="#8b8e94" font-family="Inter, Segoe UI, sans-serif" font-size="12.5">⚡ on creation: Find related, Extract claims,</text>
<text x="-4" y="-26" fill="#8b8e94" font-family="Inter, Segoe UI, sans-serif" font-size="12.5">Calculate maturity</text>
<rect x="-20" y="32" width="340" height="268" rx="12" fill="#262626" stroke="#53dfdd" stroke-width="3"/>
<path d="M-20,44 a12,12 0 0 1 12,-12 h316 a12,12 0 0 1 12,12 v34 h-340 z" fill="#53dfdd" fill-opacity="0.16"/>
<text x="-4" y="63" fill="#dcddde" font-family="Inter, Segoe UI, sans-serif" font-size="20" font-weight="700">Finding</text>
<text x="-4" y="102" fill="#53dfdd" font-family="Inter, Segoe UI, sans-serif" font-size="13.5" font-weight="600">develop · → Research/Findings</text>
<circle cx="1" cy="123" r="3.5" fill="#8b8e94"/>
<text x="12" y="128" fill="#dcddde" font-family="Inter, Segoe UI, sans-serif" font-size="14.5">The finding<tspan fill="#5c5f66" font-size="12.5">  prompt</tspan></text>
<circle cx="1" cy="145" r="3.5" fill="#8b8e94"/>
<text x="12" y="150" fill="#dcddde" font-family="Inter, Segoe UI, sans-serif" font-size="14.5">Evidence<tspan fill="#5c5f66" font-size="12.5">  prompt</tspan></text>
<circle cx="1" cy="167" r="3.5" fill="#8b8e94"/>
<text x="12" y="172" fill="#dcddde" font-family="Inter, Segoe UI, sans-serif" font-size="14.5">Implication<tspan fill="#5c5f66" font-size="12.5">  prompt</tspan></text>
<circle cx="1" cy="189" r="3.5" fill="#8b8e94"/>
<text x="12" y="194" fill="#dcddde" font-family="Inter, Segoe UI, sans-serif" font-size="14.5">Confidence<tspan fill="#5c5f66" font-size="12.5">  selector</tspan></text>
<line x1="-4" y1="224" x2="304" y2="224" stroke="#3a3a3a" stroke-width="1.5"/>
<text x="-4" y="242" fill="#8b8e94" font-family="Inter, Segoe UI, sans-serif" font-size="12.5">⚡ on creation: Find related, Calculate</text>
<text x="-4" y="262" fill="#8b8e94" font-family="Inter, Segoe UI, sans-serif" font-size="12.5">maturity, Find contradiction, Find unanswered</text>
<text x="-4" y="282" fill="#8b8e94" font-family="Inter, Segoe UI, sans-serif" font-size="12.5">question</text>
</g>
<text x="32" y="922" fill="#5c5f66" font-family="Inter, Segoe UI, sans-serif" font-size="13">Installs as a canvas flow in one click from the ZettelFlow Systems gallery.</text>
</svg>
