<svg xmlns="http://www.w3.org/2000/svg" viewBox="7.853 0.098 11.732 5.525" width="187.712" height="88.4">
<metadata id="zettelflow-ink">{"v":1,"strokes":[{"c":"pencil","t":"pen","pts":[[19.233,5.271,0.4,0.986,0],[19.087,5.231,0.406,1.13,16],[18.939,5.197,0.405,1.199,26],[18.795,5.156,0.404,1.157,33],[18.647,5.122,0.542,1.217,43],[18.502,5.078,0.551,1.269,54],[18.358,5.036,0.492,1.025,60],[18.21,5.001,0.636,0.982,68],[18.063,4.966,0.443,1.171,74],[17.92,4.92,0.645,1.18,83],[17.776,4.874,0.645,1.133,92],[17.63,4.837,0.579,1.241,98],[17.481,4.805,0.561,1.231,104],[17.335,4.768,0.409,0.988,112],[17.192,4.721,0.412,1.104,119],[17.049,4.675,0.594,1.006,126],[16.902,4.637,0.457,1.209,136],[16.76,4.59,0.418,0.937,143],[16.611,4.559,0.525,1.222,149],[16.465,4.518,0.474,1.032,156],[16.322,4.473,0.484,0.952,166],[16.184,4.414,0.409,1.048,176],[16.04,4.369,0.4,1.17,187],[15.891,4.337,0.36,0.931,197],[15.747,4.295,0.391,1.224,206],[15.609,4.234,0.328,1.117,214],[15.461,4.201,0.244,1.044,225],[15.32,4.15,0.353,0.919,231],[15.181,4.093,0.184,1.027,240],[15.04,4.042,0.168,1.189,249],[14.894,4.004,0.341,1.263,260],[14.75,3.96,0.377,1.002,266],[14.61,3.904,0.372,1.241,275],[14.468,3.856,0.2,1.191,282],[14.329,3.799,0.332,0.914,293],[14.188,3.748,0.314,1.186,303],[14.047,3.697,0.345,1.001,311],[13.904,3.65,0.297,1.209,319],[13.766,3.591,0.327,0.99,329],[13.628,3.534,0.294,1.097,335],[13.488,3.479,0.269,1.08,341],[13.345,3.433,0.3,0.942,348],[13.208,3.371,0.354,1.182,358],[13.073,3.303,0.388,1.087,366],[12.932,3.253,0.4,1.075,374],[12.794,3.194,0.414,0.964,384],[12.655,3.138,0.457,1.091,390],[12.518,3.075,0.468,1.072,401],[12.377,3.024,0.518,1.156,409],[12.243,2.954,0.559,0.97,418],[12.105,2.896,0.504,1.02,428],[11.972,2.825,0.407,1.046,434],[11.833,2.767,0.469,0.994,443],[11.693,2.713,0.492,1.195,453],[11.564,2.633,0.453,1.08,462],[11.425,2.576,0.64,0.937,473],[11.289,2.512,0.54,1.201,481],[11.151,2.451,0.685,1.243,490],[11.019,2.378,0.471,1.285,498],[10.879,2.323,0.436,0.924,508],[10.745,2.254,0.426,1.048,514],[10.613,2.182,0.413,0.944,525],[10.481,2.106,0.526,0.92,536],[10.346,2.041,0.441,1.107,545],[10.208,1.981,0.453,1.114,552],[10.078,1.901,0.438,1.039,561],[9.939,1.844,0.4,1.191,571],[9.805,1.775,0.369,1.215,577],[9.674,1.699,0.318,1.064,584],[9.543,1.623,0.349,1.073,593],[9.409,1.553,0.264,1.083,604],[9.274,1.486,0.203,1.028,610],[9.138,1.422,0.327,0.905,620],[9.004,1.354,0.241,0.938,626],[8.874,1.273,0.249,0.902,636],[8.741,1.202,0.143,1.066,643],[8.606,1.135,0.285,1.229,652],[8.471,1.068,0.131,1.18,658],[8.34,0.992,0.266,1.267,666],[8.205,0.925,0.155,1.186,677],[8.26,1.143,0.389,1.092,687],[8.313,1.365,0.389,1.247,694],[8.366,1.586,0.33,1.004,702],[8.419,1.807,0.367,1.25,708],[8.472,2.029,0.257,1.084,716],[8.525,2.25,0.325,1.23,726],[8.472,2.029,0.318,1.264,734],[8.419,1.807,0.373,1.005,744],[8.366,1.586,0.401,1.048,752],[8.313,1.365,0.437,1.287,761],[8.26,1.143,0.449,1.074,769],[8.206,0.922,0.516,0.951,776],[8.443,0.843,0.527,1.06,782],[8.68,0.765,0.509,1.096,789],[8.917,0.686,0.512,0.966,795],[9.154,0.607,0.646,1.052,804],[9.391,0.529,0.494,1.078,813],[9.628,0.45,0.66,1.248,822]]}]}</metadata>
<g fill="none" stroke-linecap="round" stroke-linejoin="round">
<path data-ink="pencil" stroke="#8a8a8a" stroke-width="0.124" d="M19.233 5.271 L19.16 5.251 Q19.087 5.231 19.013 5.214"/>
<path data-ink="pencil" stroke="#8a8a8a" stroke-width="0.11" d="M19.013 5.214 Q18.939 5.197 18.867 5.177"/>
<path data-ink="pencil" stroke="#8a8a8a" stroke-width="0.124" d="M18.867 5.177 Q18.795 5.156 18.721 5.139"/>
<path data-ink="pencil" stroke="#8a8a8a" stroke-width="0.138" d="M18.721 5.139 Q18.647 5.122 18.575 5.1 Q18.502 5.078 18.43 5.057 Q18.358 5.036 18.284 5.018"/>
<path data-ink="pencil" stroke="#8a8a8a" stroke-width="0.165" d="M18.284 5.018 Q18.21 5.001 18.136 4.984"/>
<path data-ink="pencil" stroke="#8a8a8a" stroke-width="0.124" d="M18.136 4.984 Q18.063 4.966 17.992 4.943"/>
<path data-ink="pencil" stroke="#8a8a8a" stroke-width="0.151" d="M17.992 4.943 Q17.92 4.92 17.848 4.897 Q17.776 4.874 17.703 4.855"/>
<path data-ink="pencil" stroke="#8a8a8a" stroke-width="0.138" d="M17.703 4.855 Q17.63 4.837 17.556 4.821 Q17.481 4.805 17.408 4.787"/>
<path data-ink="pencil" stroke="#8a8a8a" stroke-width="0.124" d="M17.408 4.787 Q17.335 4.768 17.264 4.745 Q17.192 4.721 17.121 4.698"/>
<path data-ink="pencil" stroke="#8a8a8a" stroke-width="0.151" d="M17.121 4.698 Q17.049 4.675 16.976 4.656"/>
<path data-ink="pencil" stroke="#8a8a8a" stroke-width="0.124" d="M16.976 4.656 Q16.902 4.637 16.831 4.614"/>
<path data-ink="pencil" stroke="#8a8a8a" stroke-width="0.138" d="M16.831 4.614 Q16.76 4.59 16.686 4.575 Q16.611 4.559 16.538 4.539 Q16.465 4.518 16.394 4.496 Q16.322 4.473 16.253 4.444"/>
<path data-ink="pencil" stroke="#8a8a8a" stroke-width="0.124" d="M16.253 4.444 Q16.184 4.414 16.112 4.392"/>
<path data-ink="pencil" stroke="#8a8a8a" stroke-width="0.11" d="M16.112 4.392 Q16.04 4.369 15.965 4.353"/>
<path data-ink="pencil" stroke="#8a8a8a" stroke-width="0.124" d="M15.965 4.353 Q15.891 4.337 15.819 4.316"/>
<path data-ink="pencil" stroke="#8a8a8a" stroke-width="0.11" d="M15.819 4.316 Q15.747 4.295 15.678 4.265 Q15.609 4.234 15.535 4.217"/>
<path data-ink="pencil" stroke="#8a8a8a" stroke-width="0.096" d="M15.535 4.217 Q15.461 4.201 15.391 4.176"/>
<path data-ink="pencil" stroke="#8a8a8a" stroke-width="0.124" d="M15.391 4.176 Q15.32 4.15 15.25 4.122"/>
<path data-ink="pencil" stroke="#8a8a8a" stroke-width="0.083" d="M15.25 4.122 Q15.181 4.093 15.11 4.068 Q15.04 4.042 14.967 4.023"/>
<path data-ink="pencil" stroke="#8a8a8a" stroke-width="0.096" d="M14.967 4.023 Q14.894 4.004 14.822 3.982"/>
<path data-ink="pencil" stroke="#8a8a8a" stroke-width="0.124" d="M14.822 3.982 Q14.75 3.96 14.68 3.932"/>
<path data-ink="pencil" stroke="#8a8a8a" stroke-width="0.11" d="M14.68 3.932 Q14.61 3.904 14.539 3.88"/>
<path data-ink="pencil" stroke="#8a8a8a" stroke-width="0.083" d="M14.539 3.88 Q14.468 3.856 14.399 3.827"/>
<path data-ink="pencil" stroke="#8a8a8a" stroke-width="0.124" d="M14.399 3.827 Q14.329 3.799 14.259 3.774"/>
<path data-ink="pencil" stroke="#8a8a8a" stroke-width="0.096" d="M14.259 3.774 Q14.188 3.748 14.118 3.723"/>
<path data-ink="pencil" stroke="#8a8a8a" stroke-width="0.11" d="M14.118 3.723 Q14.047 3.697 13.976 3.673"/>
<path data-ink="pencil" stroke="#8a8a8a" stroke-width="0.096" d="M13.976 3.673 Q13.904 3.65 13.835 3.621"/>
<path data-ink="pencil" stroke="#8a8a8a" stroke-width="0.11" d="M13.835 3.621 Q13.766 3.591 13.697 3.563"/>
<path data-ink="pencil" stroke="#8a8a8a" stroke-width="0.096" d="M13.697 3.563 Q13.628 3.534 13.558 3.507 Q13.488 3.479 13.417 3.456"/>
<path data-ink="pencil" stroke="#8a8a8a" stroke-width="0.11" d="M13.417 3.456 Q13.345 3.433 13.277 3.402 Q13.208 3.371 13.141 3.337"/>
<path data-ink="pencil" stroke="#8a8a8a" stroke-width="0.124" d="M13.141 3.337 Q13.073 3.303 13.003 3.278 Q12.932 3.253 12.863 3.224 Q12.794 3.194 12.724 3.166 Q12.655 3.138 12.587 3.107"/>
<path data-ink="pencil" stroke="#8a8a8a" stroke-width="0.138" d="M12.587 3.107 Q12.518 3.075 12.448 3.05 Q12.377 3.024 12.31 2.989"/>
<path data-ink="pencil" stroke="#8a8a8a" stroke-width="0.151" d="M12.31 2.989 Q12.243 2.954 12.174 2.925"/>
<path data-ink="pencil" stroke="#8a8a8a" stroke-width="0.138" d="M12.174 2.925 Q12.105 2.896 12.039 2.861"/>
<path data-ink="pencil" stroke="#8a8a8a" stroke-width="0.124" d="M12.039 2.861 Q11.972 2.825 11.903 2.796"/>
<path data-ink="pencil" stroke="#8a8a8a" stroke-width="0.138" d="M11.903 2.796 Q11.833 2.767 11.763 2.74"/>
<path data-ink="pencil" stroke="#8a8a8a" stroke-width="0.124" d="M11.763 2.74 Q11.693 2.713 11.628 2.673 Q11.564 2.633 11.495 2.605"/>
<path data-ink="pencil" stroke="#8a8a8a" stroke-width="0.165" d="M11.495 2.605 Q11.425 2.576 11.357 2.544"/>
<path data-ink="pencil" stroke="#8a8a8a" stroke-width="0.138" d="M11.357 2.544 Q11.289 2.512 11.22 2.482"/>
<path data-ink="pencil" stroke="#8a8a8a" stroke-width="0.151" d="M11.22 2.482 Q11.151 2.451 11.085 2.415"/>
<path data-ink="pencil" stroke="#8a8a8a" stroke-width="0.124" d="M11.085 2.415 Q11.019 2.378 10.949 2.351"/>
<path data-ink="pencil" stroke="#8a8a8a" stroke-width="0.138" d="M10.949 2.351 Q10.879 2.323 10.812 2.289"/>
<path data-ink="pencil" stroke="#8a8a8a" stroke-width="0.124" d="M10.812 2.289 Q10.745 2.254 10.679 2.218 Q10.613 2.182 10.547 2.144"/>
<path data-ink="pencil" stroke="#8a8a8a" stroke-width="0.151" d="M10.547 2.144 Q10.481 2.106 10.414 2.074"/>
<path data-ink="pencil" stroke="#8a8a8a" stroke-width="0.124" d="M10.414 2.074 Q10.346 2.041 10.277 2.011 Q10.208 1.981 10.143 1.941 Q10.078 1.901 10.009 1.873"/>
<path data-ink="pencil" stroke="#8a8a8a" stroke-width="0.11" d="M10.009 1.873 Q9.939 1.844 9.872 1.81 Q9.805 1.775 9.74 1.737 Q9.674 1.699 9.609 1.661 Q9.543 1.623 9.476 1.588"/>
<path data-ink="pencil" stroke="#8a8a8a" stroke-width="0.096" d="M9.476 1.588 Q9.409 1.553 9.342 1.519 Q9.274 1.486 9.206 1.454"/>
<path data-ink="pencil" stroke="#8a8a8a" stroke-width="0.11" d="M9.206 1.454 Q9.138 1.422 9.071 1.388"/>
<path data-ink="pencil" stroke="#8a8a8a" stroke-width="0.096" d="M9.071 1.388 Q9.004 1.354 8.939 1.314 Q8.874 1.273 8.808 1.237"/>
<path data-ink="pencil" stroke="#8a8a8a" stroke-width="0.083" d="M8.808 1.237 Q8.741 1.202 8.674 1.168"/>
<path data-ink="pencil" stroke="#8a8a8a" stroke-width="0.096" d="M8.674 1.168 Q8.606 1.135 8.539 1.102"/>
<path data-ink="pencil" stroke="#8a8a8a" stroke-width="0.069" d="M8.539 1.102 Q8.471 1.068 8.406 1.03"/>
<path data-ink="pencil" stroke="#8a8a8a" stroke-width="0.096" d="M8.406 1.03 Q8.34 0.992 8.273 0.959"/>
<path data-ink="pencil" stroke="#8a8a8a" stroke-width="0.083" d="M8.273 0.959 Q8.205 0.925 8.233 1.034"/>
<path data-ink="pencil" stroke="#8a8a8a" stroke-width="0.124" d="M8.233 1.034 Q8.26 1.143 8.287 1.254"/>
<path data-ink="pencil" stroke="#8a8a8a" stroke-width="0.11" d="M8.287 1.254 Q8.313 1.365 8.34 1.476 Q8.366 1.586 8.393 1.697 Q8.419 1.807 8.446 1.918"/>
<path data-ink="pencil" stroke="#8a8a8a" stroke-width="0.096" d="M8.446 1.918 Q8.472 2.029 8.499 2.14 Q8.525 2.25 8.499 2.14 Q8.472 2.029 8.446 1.918"/>
<path data-ink="pencil" stroke="#8a8a8a" stroke-width="0.124" d="M8.446 1.918 Q8.419 1.807 8.393 1.697 Q8.366 1.586 8.34 1.476"/>
<path data-ink="pencil" stroke="#8a8a8a" stroke-width="0.11" d="M8.34 1.476 Q8.313 1.365 8.287 1.254"/>
<path data-ink="pencil" stroke="#8a8a8a" stroke-width="0.124" d="M8.287 1.254 Q8.26 1.143 8.233 1.033"/>
<path data-ink="pencil" stroke="#8a8a8a" stroke-width="0.151" d="M8.233 1.033 Q8.206 0.922 8.325 0.883"/>
<path data-ink="pencil" stroke="#8a8a8a" stroke-width="0.138" d="M8.325 0.883 Q8.443 0.843 8.561 0.804 Q8.68 0.765 8.799 0.726"/>
<path data-ink="pencil" stroke="#8a8a8a" stroke-width="0.151" d="M8.799 0.726 Q8.917 0.686 9.035 0.647"/>
<path data-ink="pencil" stroke="#8a8a8a" stroke-width="0.165" d="M9.035 0.647 Q9.154 0.607 9.273 0.568"/>
<path data-ink="pencil" stroke="#8a8a8a" stroke-width="0.138" d="M9.273 0.568 Q9.391 0.529 9.51 0.49"/>
<path data-ink="pencil" stroke="#8a8a8a" stroke-width="0.151" d="M9.51 0.49 L9.628 0.45"/>
</g>
</svg>
