<svg xmlns="http://www.w3.org/2000/svg" viewBox="7.318 6 16.976 4.255" width="271.616" height="68.08">
<metadata id="zettelflow-ink">{"v":1,"strokes":[{"c":"pencil","t":"pen","pts":[[7.67,6.63,0.4,1.168,0],[7.822,6.619,0.407,1.258,15],[7.974,6.604,0.429,1.3,23],[8.127,6.589,0.407,1.037,32],[8.278,6.583,0.465,1.22,41],[8.429,6.58,0.429,1.093,52],[8.582,6.566,0.488,1.207,63],[8.734,6.552,0.605,0.96,74],[8.886,6.541,0.577,1.057,85],[9.038,6.528,0.574,1.273,96],[9.191,6.505,0.542,1.001,103],[9.343,6.5,0.677,1.272,113],[9.496,6.482,0.434,1.273,122],[9.646,6.487,0.682,1.229,130],[9.798,6.476,0.449,1.062,139],[9.949,6.47,0.561,1.011,150],[10.102,6.456,0.474,1.129,156],[10.253,6.449,0.575,0.922,166],[10.406,6.436,0.512,0.965,173],[10.558,6.423,0.485,1.135,179],[10.709,6.42,0.443,0.98,189],[10.861,6.408,0.405,1.209,197],[11.012,6.409,0.4,0.932,207],[11.163,6.402,0.373,1.055,217],[11.316,6.382,0.342,1.289,228],[11.467,6.388,0.279,1.007,236],[11.619,6.372,0.332,0.974,243],[11.77,6.37,0.398,1.16,250],[11.922,6.362,0.318,1.19,260],[12.073,6.361,0.236,0.915,266],[12.224,6.355,0.162,0.978,277],[12.375,6.353,0.301,0.911,283],[12.525,6.367,0.14,1.258,291],[12.676,6.362,0.285,0.935,299],[12.828,6.354,0.269,0.952,307],[12.979,6.352,0.272,1.012,314],[13.129,6.36,0.238,1.147,322],[13.281,6.353,0.18,1.036,331],[13.429,6.374,0.205,1.262,342],[13.58,6.372,0.267,1.073,351],[13.732,6.365,0.242,1.023,362],[13.882,6.372,0.299,1.098,368],[14.033,6.373,0.368,0.994,378],[14.182,6.386,0.386,1.295,385],[14.331,6.404,0.4,1.244,395],[14.483,6.398,0.408,1.185,404],[14.632,6.418,0.404,1.19,410],[14.782,6.424,0.407,0.977,421],[14.933,6.421,0.554,1.024,427],[15.082,6.437,0.596,1.231,433],[15.231,6.456,0.567,1.178,442],[15.381,6.463,0.476,1.051,449],[15.53,6.481,0.528,0.994,460],[15.681,6.488,0.655,0.995,470],[15.831,6.495,0.677,0.997,479],[15.98,6.515,0.531,1.051,487],[16.129,6.533,0.488,1.27,495],[16.278,6.547,0.446,0.923,504],[16.427,6.563,0.541,0.961,514],[16.576,6.582,0.635,1.003,520],[16.725,6.599,0.539,1.16,531],[16.872,6.637,0.544,1.115,539],[17.022,6.646,0.484,0.901,548],[17.17,6.676,0.434,0.934,558],[17.319,6.692,0.44,1.112,566],[17.467,6.719,0.406,1.205,573],[17.615,6.745,0.4,0.941,583],[17.763,6.775,0.368,1.193,590],[17.912,6.797,0.348,1.015,601],[18.061,6.809,0.394,1.05,612],[18.209,6.839,0.342,1.096,622],[18.356,6.881,0.331,1.084,630],[18.505,6.9,0.303,1.179,636],[18.652,6.931,0.399,0.948,647],[18.801,6.95,0.232,1.187,654],[18.947,6.997,0.373,1.075,663],[19.095,7.026,0.17,1.14,672],[19.243,7.053,0.337,0.975,682],[19.391,7.087,0.385,1.242,691],[19.539,7.113,0.226,0.965,700],[19.685,7.158,0.385,1.098,708],[19.834,7.176,0.343,1.271,718],[19.98,7.229,0.205,1.035,729],[20.128,7.248,0.287,1.296,736],[20.275,7.285,0.306,1.274,742],[20.423,7.321,0.31,1.055,753],[20.569,7.369,0.378,1.18,759],[20.716,7.4,0.396,1.038,767],[20.863,7.436,0.401,0.962,774],[21.01,7.482,0.421,1.276,784],[21.157,7.51,0.473,0.979,793],[21.304,7.556,0.505,0.999,802],[21.45,7.604,0.521,1.179,811],[21.597,7.641,0.42,0.955,821],[21.744,7.671,0.406,1.123,831],[21.89,7.722,0.416,0.906,839],[22.037,7.764,0.549,0.962,846],[22.184,7.802,0.539,1.064,857],[22.332,7.829,0.561,0.91,867],[22.477,7.887,0.659,1.224,874],[22.623,7.926,0.417,0.99,881],[22.77,7.964,0.641,1.134,889],[22.917,8.008,0.519,1.257,898],[23.063,8.052,0.62,0.905,908],[23.211,8.084,0.54,1.246,918],[23.356,8.141,0.564,0.998,929],[23.504,8.17,0.416,1.201,935],[23.65,8.213,0.401,1.248,943],[23.795,8.267,0.404,1.123,950],[23.942,8.307,0.41,1.286,959],[23.462,8.572,0.399,1.216,967],[22.982,8.839,0.381,0.985,973],[22.502,9.105,0.356,1.26,981],[22.023,9.371,0.39,0.956,987],[21.543,9.637,0.257,1.089,996],[21.063,9.903,0.331,1.181,1003]]}]}</metadata>
<g fill="none" stroke-linecap="round" stroke-linejoin="round">
<path data-ink="pencil" stroke="#8a8a8a" stroke-width="0.11" d="M7.67 6.63 L7.746 6.624 Q7.822 6.619 7.898 6.611 Q7.974 6.604 8.051 6.597"/>
<path data-ink="pencil" stroke="#8a8a8a" stroke-width="0.124" d="M8.051 6.597 Q8.127 6.589 8.203 6.586 Q8.278 6.583 8.354 6.582 Q8.429 6.58 8.506 6.573 Q8.582 6.566 8.658 6.559"/>
<path data-ink="pencil" stroke="#8a8a8a" stroke-width="0.165" d="M8.658 6.559 Q8.734 6.552 8.81 6.547"/>
<path data-ink="pencil" stroke="#8a8a8a" stroke-width="0.151" d="M8.81 6.547 Q8.886 6.541 8.962 6.534"/>
<path data-ink="pencil" stroke="#8a8a8a" stroke-width="0.138" d="M8.962 6.534 Q9.038 6.528 9.115 6.517"/>
<path data-ink="pencil" stroke="#8a8a8a" stroke-width="0.151" d="M9.115 6.517 Q9.191 6.505 9.267 6.502 Q9.343 6.5 9.42 6.491"/>
<path data-ink="pencil" stroke="#8a8a8a" stroke-width="0.11" d="M9.42 6.491 Q9.496 6.482 9.571 6.485"/>
<path data-ink="pencil" stroke="#8a8a8a" stroke-width="0.151" d="M9.571 6.485 Q9.646 6.487 9.722 6.482"/>
<path data-ink="pencil" stroke="#8a8a8a" stroke-width="0.124" d="M9.722 6.482 Q9.798 6.476 9.874 6.473"/>
<path data-ink="pencil" stroke="#8a8a8a" stroke-width="0.151" d="M9.874 6.473 Q9.949 6.47 10.026 6.463"/>
<path data-ink="pencil" stroke="#8a8a8a" stroke-width="0.124" d="M10.026 6.463 Q10.102 6.456 10.178 6.453"/>
<path data-ink="pencil" stroke="#8a8a8a" stroke-width="0.165" d="M10.178 6.453 Q10.253 6.449 10.33 6.443"/>
<path data-ink="pencil" stroke="#8a8a8a" stroke-width="0.151" d="M10.33 6.443 Q10.406 6.436 10.482 6.43"/>
<path data-ink="pencil" stroke="#8a8a8a" stroke-width="0.138" d="M10.482 6.43 Q10.558 6.423 10.634 6.422 Q10.709 6.42 10.785 6.414"/>
<path data-ink="pencil" stroke="#8a8a8a" stroke-width="0.11" d="M10.785 6.414 Q10.861 6.408 10.937 6.409"/>
<path data-ink="pencil" stroke="#8a8a8a" stroke-width="0.124" d="M10.937 6.409 Q11.012 6.409 11.088 6.406 Q11.163 6.402 11.24 6.392"/>
<path data-ink="pencil" stroke="#8a8a8a" stroke-width="0.096" d="M11.24 6.392 Q11.316 6.382 11.392 6.385"/>
<path data-ink="pencil" stroke="#8a8a8a" stroke-width="0.11" d="M11.392 6.385 Q11.467 6.388 11.543 6.38 Q11.619 6.372 11.695 6.371 Q11.77 6.37 11.846 6.366"/>
<path data-ink="pencil" stroke="#8a8a8a" stroke-width="0.096" d="M11.846 6.366 Q11.922 6.362 11.998 6.361 Q12.073 6.361 12.149 6.358"/>
<path data-ink="pencil" stroke="#8a8a8a" stroke-width="0.083" d="M12.149 6.358 Q12.224 6.355 12.3 6.354"/>
<path data-ink="pencil" stroke="#8a8a8a" stroke-width="0.11" d="M12.3 6.354 Q12.375 6.353 12.45 6.36"/>
<path data-ink="pencil" stroke="#8a8a8a" stroke-width="0.069" d="M12.45 6.36 Q12.525 6.367 12.601 6.365"/>
<path data-ink="pencil" stroke="#8a8a8a" stroke-width="0.11" d="M12.601 6.365 Q12.676 6.362 12.752 6.358 Q12.828 6.354 12.904 6.353"/>
<path data-ink="pencil" stroke="#8a8a8a" stroke-width="0.096" d="M12.904 6.353 Q12.979 6.352 13.054 6.356 Q13.129 6.36 13.205 6.357"/>
<path data-ink="pencil" stroke="#8a8a8a" stroke-width="0.083" d="M13.205 6.357 Q13.281 6.353 13.355 6.364 Q13.429 6.374 13.505 6.373"/>
<path data-ink="pencil" stroke="#8a8a8a" stroke-width="0.096" d="M13.505 6.373 Q13.58 6.372 13.656 6.369 Q13.732 6.365 13.807 6.369"/>
<path data-ink="pencil" stroke="#8a8a8a" stroke-width="0.11" d="M13.807 6.369 Q13.882 6.372 13.958 6.373"/>
<path data-ink="pencil" stroke="#8a8a8a" stroke-width="0.124" d="M13.958 6.373 Q14.033 6.373 14.108 6.38"/>
<path data-ink="pencil" stroke="#8a8a8a" stroke-width="0.11" d="M14.108 6.38 Q14.182 6.386 14.256 6.395 Q14.331 6.404 14.407 6.401"/>
<path data-ink="pencil" stroke="#8a8a8a" stroke-width="0.124" d="M14.407 6.401 Q14.483 6.398 14.558 6.408"/>
<path data-ink="pencil" stroke="#8a8a8a" stroke-width="0.11" d="M14.558 6.408 Q14.632 6.418 14.707 6.421"/>
<path data-ink="pencil" stroke="#8a8a8a" stroke-width="0.124" d="M14.707 6.421 Q14.782 6.424 14.858 6.423"/>
<path data-ink="pencil" stroke="#8a8a8a" stroke-width="0.151" d="M14.858 6.423 Q14.933 6.421 15.008 6.429"/>
<path data-ink="pencil" stroke="#8a8a8a" stroke-width="0.138" d="M15.008 6.429 Q15.082 6.437 15.157 6.447 Q15.231 6.456 15.306 6.46 Q15.381 6.463 15.456 6.472"/>
<path data-ink="pencil" stroke="#8a8a8a" stroke-width="0.151" d="M15.456 6.472 Q15.53 6.481 15.606 6.485"/>
<path data-ink="pencil" stroke="#8a8a8a" stroke-width="0.165" d="M15.606 6.485 Q15.681 6.488 15.756 6.492"/>
<path data-ink="pencil" stroke="#8a8a8a" stroke-width="0.179" d="M15.756 6.492 Q15.831 6.495 15.906 6.505"/>
<path data-ink="pencil" stroke="#8a8a8a" stroke-width="0.138" d="M15.906 6.505 Q15.98 6.515 16.055 6.524"/>
<path data-ink="pencil" stroke="#8a8a8a" stroke-width="0.124" d="M16.055 6.524 Q16.129 6.533 16.203 6.54"/>
<path data-ink="pencil" stroke="#8a8a8a" stroke-width="0.138" d="M16.203 6.54 Q16.278 6.547 16.353 6.555"/>
<path data-ink="pencil" stroke="#8a8a8a" stroke-width="0.151" d="M16.353 6.555 Q16.427 6.563 16.502 6.573"/>
<path data-ink="pencil" stroke="#8a8a8a" stroke-width="0.165" d="M16.502 6.573 Q16.576 6.582 16.651 6.591"/>
<path data-ink="pencil" stroke="#8a8a8a" stroke-width="0.138" d="M16.651 6.591 Q16.725 6.599 16.799 6.618 Q16.872 6.637 16.947 6.642"/>
<path data-ink="pencil" stroke="#8a8a8a" stroke-width="0.151" d="M16.947 6.642 Q17.022 6.646 17.096 6.661"/>
<path data-ink="pencil" stroke="#8a8a8a" stroke-width="0.138" d="M17.096 6.661 Q17.17 6.676 17.245 6.684"/>
<path data-ink="pencil" stroke="#8a8a8a" stroke-width="0.124" d="M17.245 6.684 Q17.319 6.692 17.393 6.706"/>
<path data-ink="pencil" stroke="#8a8a8a" stroke-width="0.11" d="M17.393 6.706 Q17.467 6.719 17.541 6.732"/>
<path data-ink="pencil" stroke="#8a8a8a" stroke-width="0.124" d="M17.541 6.732 Q17.615 6.745 17.689 6.76"/>
<path data-ink="pencil" stroke="#8a8a8a" stroke-width="0.11" d="M17.689 6.76 Q17.763 6.775 17.838 6.786 Q17.912 6.797 17.987 6.803"/>
<path data-ink="pencil" stroke="#8a8a8a" stroke-width="0.124" d="M17.987 6.803 Q18.061 6.809 18.135 6.824"/>
<path data-ink="pencil" stroke="#8a8a8a" stroke-width="0.11" d="M18.135 6.824 Q18.209 6.839 18.283 6.86 Q18.356 6.881 18.431 6.891"/>
<path data-ink="pencil" stroke="#8a8a8a" stroke-width="0.096" d="M18.431 6.891 Q18.505 6.9 18.579 6.916"/>
<path data-ink="pencil" stroke="#8a8a8a" stroke-width="0.124" d="M18.579 6.916 Q18.652 6.931 18.727 6.941"/>
<path data-ink="pencil" stroke="#8a8a8a" stroke-width="0.083" d="M18.727 6.941 Q18.801 6.95 18.874 6.974"/>
<path data-ink="pencil" stroke="#8a8a8a" stroke-width="0.11" d="M18.874 6.974 Q18.947 6.997 19.021 7.012"/>
<path data-ink="pencil" stroke="#8a8a8a" stroke-width="0.083" d="M19.021 7.012 Q19.095 7.026 19.169 7.04"/>
<path data-ink="pencil" stroke="#8a8a8a" stroke-width="0.11" d="M19.169 7.04 Q19.243 7.053 19.317 7.07 Q19.391 7.087 19.465 7.1"/>
<path data-ink="pencil" stroke="#8a8a8a" stroke-width="0.096" d="M19.465 7.1 Q19.539 7.113 19.612 7.136"/>
<path data-ink="pencil" stroke="#8a8a8a" stroke-width="0.124" d="M19.612 7.136 Q19.685 7.158 19.76 7.167"/>
<path data-ink="pencil" stroke="#8a8a8a" stroke-width="0.096" d="M19.76 7.167 Q19.834 7.176 19.907 7.203 Q19.98 7.229 20.054 7.239 Q20.128 7.248 20.202 7.267 Q20.275 7.285 20.349 7.303"/>
<path data-ink="pencil" stroke="#8a8a8a" stroke-width="0.11" d="M20.349 7.303 Q20.423 7.321 20.496 7.345 Q20.569 7.369 20.643 7.385"/>
<path data-ink="pencil" stroke="#8a8a8a" stroke-width="0.124" d="M20.643 7.385 Q20.716 7.4 20.79 7.418 Q20.863 7.436 20.937 7.459"/>
<path data-ink="pencil" stroke="#8a8a8a" stroke-width="0.11" d="M20.937 7.459 Q21.01 7.482 21.084 7.496"/>
<path data-ink="pencil" stroke="#8a8a8a" stroke-width="0.138" d="M21.084 7.496 Q21.157 7.51 21.231 7.533 Q21.304 7.556 21.377 7.58 Q21.45 7.604 21.524 7.623 Q21.597 7.641 21.671 7.656"/>
<path data-ink="pencil" stroke="#8a8a8a" stroke-width="0.124" d="M21.671 7.656 Q21.744 7.671 21.817 7.697"/>
<path data-ink="pencil" stroke="#8a8a8a" stroke-width="0.138" d="M21.817 7.697 Q21.89 7.722 21.964 7.743"/>
<path data-ink="pencil" stroke="#8a8a8a" stroke-width="0.151" d="M21.964 7.743 Q22.037 7.764 22.111 7.783 Q22.184 7.802 22.258 7.816 Q22.332 7.829 22.405 7.858 Q22.477 7.887 22.55 7.906"/>
<path data-ink="pencil" stroke="#8a8a8a" stroke-width="0.124" d="M22.55 7.906 Q22.623 7.926 22.697 7.945"/>
<path data-ink="pencil" stroke="#8a8a8a" stroke-width="0.151" d="M22.697 7.945 Q22.77 7.964 22.844 7.986"/>
<path data-ink="pencil" stroke="#8a8a8a" stroke-width="0.124" d="M22.844 7.986 Q22.917 8.008 22.99 8.03"/>
<path data-ink="pencil" stroke="#8a8a8a" stroke-width="0.165" d="M22.99 8.03 Q23.063 8.052 23.137 8.068"/>
<path data-ink="pencil" stroke="#8a8a8a" stroke-width="0.138" d="M23.137 8.068 Q23.211 8.084 23.284 8.113"/>
<path data-ink="pencil" stroke="#8a8a8a" stroke-width="0.151" d="M23.284 8.113 Q23.356 8.141 23.43 8.156"/>
<path data-ink="pencil" stroke="#8a8a8a" stroke-width="0.124" d="M23.43 8.156 Q23.504 8.17 23.577 8.192"/>
<path data-ink="pencil" stroke="#8a8a8a" stroke-width="0.11" d="M23.577 8.192 Q23.65 8.213 23.723 8.24"/>
<path data-ink="pencil" stroke="#8a8a8a" stroke-width="0.124" d="M23.723 8.24 Q23.795 8.267 23.869 8.287"/>
<path data-ink="pencil" stroke="#8a8a8a" stroke-width="0.11" d="M23.869 8.287 Q23.942 8.307 23.702 8.439 Q23.462 8.572 23.222 8.706"/>
<path data-ink="pencil" stroke="#8a8a8a" stroke-width="0.124" d="M23.222 8.706 Q22.982 8.839 22.742 8.972"/>
<path data-ink="pencil" stroke="#8a8a8a" stroke-width="0.11" d="M22.742 8.972 Q22.502 9.105 22.263 9.238"/>
<path data-ink="pencil" stroke="#8a8a8a" stroke-width="0.124" d="M22.263 9.238 Q22.023 9.371 21.783 9.504"/>
<path data-ink="pencil" stroke="#8a8a8a" stroke-width="0.096" d="M21.783 9.504 Q21.543 9.637 21.303 9.77"/>
<path data-ink="pencil" stroke="#8a8a8a" stroke-width="0.11" d="M21.303 9.77 L21.063 9.903"/>
</g>
</svg>
