<svg xmlns="http://www.w3.org/2000/svg" viewBox="-0.352 -0.352 6.824 1.444" width="109.184" height="23.104">
<metadata id="zettelflow-ink">{"v":1,"strokes":[{"c":"pencil","t":"pen","pts":[[0,0.707,0.314,1.096,0],[0.245,0.711,0.34,1.063,16],[0.49,0.735,0.371,0.998,23],[0.734,0.732,0.479,0.952,32],[0.979,0.726,0.503,1.252,38],[1.224,0.705,0.489,1.012,48],[1.469,0.74,0.557,0.953,56],[1.714,0.739,0.534,1.275,64],[1.959,0.714,0.589,0.968,73],[2.203,0.729,0.609,0.916,79],[2.448,0.74,0.646,0.971,85],[2.693,0.733,0.628,1.16,95],[2.938,0.706,0.635,1.235,102],[3.183,0.714,0.625,1.286,107],[3.427,0.702,0.655,1.241,117],[3.672,0.725,0.661,1.095,122],[3.917,0.707,0.612,1.272,129],[4.162,0.736,0.64,1.16,134],[4.407,0.702,0.603,1.125,141],[4.651,0.717,0.658,0.939,148],[4.896,0.733,0.632,1.087,155],[5.141,0.737,0.567,1.141,165],[5.386,0.711,0.58,1.218,170],[5.631,0.716,0.583,1.183,176],[5.876,0.706,0.581,1.194,184],[6.12,0.722,0.521,1.173,189],[5.97,0.6,0.555,1.182,199],[5.82,0.48,0.538,0.947,204],[5.67,0.36,0.423,0.913,215],[5.52,0.24,0.485,1.111,224],[5.37,0.12,0.431,1.006,235],[5.22,0,0.412,0.925,243]]}]}</metadata>
<g fill="none" stroke-linecap="round" stroke-linejoin="round">
<path data-ink="pencil" stroke="#8a8a8a" stroke-width="0.11" d="M0 0.707 L0.123 0.709 Q0.245 0.711 0.368 0.723"/>
<path data-ink="pencil" stroke="#8a8a8a" stroke-width="0.124" d="M0.368 0.723 Q0.49 0.735 0.612 0.734"/>
<path data-ink="pencil" stroke="#8a8a8a" stroke-width="0.138" d="M0.612 0.734 Q0.734 0.732 0.857 0.729"/>
<path data-ink="pencil" stroke="#8a8a8a" stroke-width="0.124" d="M0.857 0.729 Q0.979 0.726 1.102 0.716"/>
<path data-ink="pencil" stroke="#8a8a8a" stroke-width="0.138" d="M1.102 0.716 Q1.224 0.705 1.347 0.722"/>
<path data-ink="pencil" stroke="#8a8a8a" stroke-width="0.151" d="M1.347 0.722 Q1.469 0.74 1.592 0.74"/>
<path data-ink="pencil" stroke="#8a8a8a" stroke-width="0.138" d="M1.592 0.74 Q1.714 0.739 1.837 0.726"/>
<path data-ink="pencil" stroke="#8a8a8a" stroke-width="0.165" d="M1.837 0.726 Q1.959 0.714 2.081 0.722 Q2.203 0.729 2.326 0.734 Q2.448 0.74 2.571 0.736"/>
<path data-ink="pencil" stroke="#8a8a8a" stroke-width="0.151" d="M2.571 0.736 Q2.693 0.733 2.816 0.72 Q2.938 0.706 3.061 0.71 Q3.183 0.714 3.305 0.708 Q3.427 0.702 3.55 0.714"/>
<path data-ink="pencil" stroke="#8a8a8a" stroke-width="0.165" d="M3.55 0.714 Q3.672 0.725 3.795 0.716"/>
<path data-ink="pencil" stroke="#8a8a8a" stroke-width="0.138" d="M3.795 0.716 Q3.917 0.707 4.04 0.722"/>
<path data-ink="pencil" stroke="#8a8a8a" stroke-width="0.151" d="M4.04 0.722 Q4.162 0.736 4.284 0.719 Q4.407 0.702 4.529 0.71"/>
<path data-ink="pencil" stroke="#8a8a8a" stroke-width="0.179" d="M4.529 0.71 Q4.651 0.717 4.774 0.725"/>
<path data-ink="pencil" stroke="#8a8a8a" stroke-width="0.165" d="M4.774 0.725 Q4.896 0.733 5.018 0.735"/>
<path data-ink="pencil" stroke="#8a8a8a" stroke-width="0.151" d="M5.018 0.735 Q5.141 0.737 5.264 0.724"/>
<path data-ink="pencil" stroke="#8a8a8a" stroke-width="0.138" d="M5.264 0.724 Q5.386 0.711 5.509 0.714"/>
<path data-ink="pencil" stroke="#8a8a8a" stroke-width="0.151" d="M5.509 0.714 Q5.631 0.716 5.754 0.711"/>
<path data-ink="pencil" stroke="#8a8a8a" stroke-width="0.138" d="M5.754 0.711 Q5.876 0.706 5.998 0.714 Q6.12 0.722 6.045 0.661 Q5.97 0.6 5.895 0.54"/>
<path data-ink="pencil" stroke="#8a8a8a" stroke-width="0.151" d="M5.895 0.54 Q5.82 0.48 5.745 0.42"/>
<path data-ink="pencil" stroke="#8a8a8a" stroke-width="0.138" d="M5.745 0.42 Q5.67 0.36 5.595 0.3 Q5.52 0.24 5.445 0.18"/>
<path data-ink="pencil" stroke="#8a8a8a" stroke-width="0.124" d="M5.445 0.18 Q5.37 0.12 5.295 0.06"/>
<path data-ink="pencil" stroke="#8a8a8a" stroke-width="0.138" d="M5.295 0.06 L5.22 0"/>
</g>
</svg>
