<svg xmlns="http://www.w3.org/2000/svg" viewBox="14.407 1.131 6.017 3.8" width="96.272" height="60.8">
<metadata id="zettelflow-ink">{"v":1,"strokes":[{"c":"pencil","t":"pen","pts":[[16.923,4.545,0.4,1.296,0],[16.731,4.528,0.426,1.128,13],[16.538,4.509,0.478,1.067,23],[16.346,4.484,0.519,1.171,34],[16.174,4.426,0.452,1.257,42],[16.006,4.368,0.418,0.922,49],[15.839,4.31,0.506,0.936,58],[15.681,4.245,0.591,1.224,66],[15.569,4.147,0.551,1.03,76],[15.433,4.07,0.664,1.035,82],[15.331,3.975,0.456,0.924,93],[15.21,3.891,0.455,1.243,100],[15.116,3.797,0.654,0.963,109],[15.057,3.691,0.631,0.99,118],[14.991,3.591,0.459,0.976,129],[14.91,3.495,0.404,1.003,138],[14.85,3.393,0.443,1.022,145],[14.813,3.288,0.456,1.088,153],[14.805,3.18,0.446,1.274,164],[14.77,3.074,0.471,1.116,173],[14.775,2.967,0.471,1.094,181],[14.759,2.859,0.417,1.234,190],[14.762,2.75,0.4,1.054,197],[14.774,2.639,0.384,1.206,206],[14.845,2.537,0.375,1.002,214],[14.843,2.418,0.331,1.228,222],[14.922,2.316,0.365,1.079,228],[14.978,2.205,0.361,0.912,234],[15.102,2.117,0.202,0.969,244],[15.185,2.011,0.156,1.11,254],[15.317,1.926,0.341,0.987,260],[15.468,1.853,0.164,1.057,271],[15.615,1.778,0.283,1.299,277],[15.766,1.705,0.127,1.185,283],[15.927,1.64,0.12,1.191,291],[16.113,1.602,0.376,0.988,298],[16.304,1.575,0.142,0.934,306],[16.471,1.514,0.22,0.926,314],[16.677,1.528,0.335,0.95,322],[16.855,1.483,0.313,1.047,333],[17.048,1.488,0.272,1.02,341],[17.237,1.504,0.346,1.009,352],[17.422,1.515,0.396,1.285,361],[17.602,1.546,0.38,1.109,372],[17.79,1.538,0.4,1.236,380],[17.955,1.595,0.438,0.928,388],[18.121,1.638,0.48,1.191,394],[18.316,1.639,0.494,1.182,403],[18.499,1.667,0.52,1.106,414],[18.62,1.761,0.5,0.981,422],[18.796,1.799,0.558,1.014,428],[18.935,1.87,0.432,1.15,436],[19.125,1.91,0.579,1.197,442],[19.254,1.991,0.667,1.126,452],[19.381,2.073,0.546,1.165,459],[19.495,2.162,0.538,1.136,465],[19.66,2.235,0.502,1.218,471],[19.784,2.328,0.44,0.947,481],[19.744,2.46,0.451,1.29,490],[19.855,2.557,0.444,1.183,501],[19.946,2.661,0.538,1.278,510],[19.981,2.774,0.518,1.144,519],[20.072,2.885,0.447,1.158,530],[19.972,3.002,0.401,1.095,539],[20.056,3.119,0.432,0.984,546],[19.849,3.22,0.403,1.187,553],[19.789,3.324,0.4,0.993,560],[19.808,3.44,0.376,1.229,571],[19.707,3.536,0.345,1.165,580],[19.675,3.647,0.38,0.985,591],[19.499,3.717,0.393,1.282,599],[19.481,3.838,0.351,1.259,610],[19.327,3.909,0.363,1.152,616],[19.234,4.005,0.255,1.128,623],[19.025,4.037,0.296,1.138,633],[18.901,4.113,0.329,1.203,641],[18.829,4.235,0.271,1.002,649],[18.63,4.258,0.146,1.111,657],[18.441,4.277,0.155,0.997,665],[18.297,4.346,0.144,1.047,671],[18.151,4.425,0.345,1.013,678],[17.975,4.464,0.37,1.23,684],[17.776,4.442,0.396,1.264,692],[17.617,4.565,0.213,0.954,701],[17.415,4.488,0.329,1.201,710],[17.226,4.579,0.362,1.134,716],[17.035,4.54,0.378,1.131,727],[16.84,4.543,0.386,1.178,736],[16.645,4.529,0.401,1.09,747]]}]}</metadata>
<g fill="none" stroke-linecap="round" stroke-linejoin="round">
<path data-ink="pencil" stroke="#8a8a8a" stroke-width="0.11" d="M16.923 4.545 L16.827 4.537"/>
<path data-ink="pencil" stroke="#8a8a8a" stroke-width="0.124" d="M16.827 4.537 Q16.731 4.528 16.635 4.518"/>
<path data-ink="pencil" stroke="#8a8a8a" stroke-width="0.138" d="M16.635 4.518 Q16.538 4.509 16.442 4.497 Q16.346 4.484 16.26 4.455"/>
<path data-ink="pencil" stroke="#8a8a8a" stroke-width="0.124" d="M16.26 4.455 Q16.174 4.426 16.09 4.397"/>
<path data-ink="pencil" stroke="#8a8a8a" stroke-width="0.138" d="M16.09 4.397 Q16.006 4.368 15.923 4.339"/>
<path data-ink="pencil" stroke="#8a8a8a" stroke-width="0.151" d="M15.923 4.339 Q15.839 4.31 15.76 4.278"/>
<path data-ink="pencil" stroke="#8a8a8a" stroke-width="0.138" d="M15.76 4.278 Q15.681 4.245 15.625 4.196"/>
<path data-ink="pencil" stroke="#8a8a8a" stroke-width="0.151" d="M15.625 4.196 Q15.569 4.147 15.501 4.109"/>
<path data-ink="pencil" stroke="#8a8a8a" stroke-width="0.165" d="M15.501 4.109 Q15.433 4.07 15.382 4.023"/>
<path data-ink="pencil" stroke="#8a8a8a" stroke-width="0.138" d="M15.382 4.023 Q15.331 3.975 15.271 3.933"/>
<path data-ink="pencil" stroke="#8a8a8a" stroke-width="0.124" d="M15.271 3.933 Q15.21 3.891 15.163 3.844"/>
<path data-ink="pencil" stroke="#8a8a8a" stroke-width="0.165" d="M15.163 3.844 Q15.116 3.797 15.087 3.744 Q15.057 3.691 15.024 3.641"/>
<path data-ink="pencil" stroke="#8a8a8a" stroke-width="0.138" d="M15.024 3.641 Q14.991 3.591 14.951 3.543"/>
<path data-ink="pencil" stroke="#8a8a8a" stroke-width="0.124" d="M14.951 3.543 Q14.91 3.495 14.88 3.444"/>
<path data-ink="pencil" stroke="#8a8a8a" stroke-width="0.138" d="M14.88 3.444 Q14.85 3.393 14.832 3.34"/>
<path data-ink="pencil" stroke="#8a8a8a" stroke-width="0.124" d="M14.832 3.34 Q14.813 3.288 14.809 3.234 Q14.805 3.18 14.788 3.127"/>
<path data-ink="pencil" stroke="#8a8a8a" stroke-width="0.138" d="M14.788 3.127 Q14.77 3.074 14.773 3.021 Q14.775 2.967 14.767 2.913"/>
<path data-ink="pencil" stroke="#8a8a8a" stroke-width="0.11" d="M14.767 2.913 Q14.759 2.859 14.761 2.805"/>
<path data-ink="pencil" stroke="#8a8a8a" stroke-width="0.124" d="M14.761 2.805 Q14.762 2.75 14.768 2.694"/>
<path data-ink="pencil" stroke="#8a8a8a" stroke-width="0.11" d="M14.768 2.694 Q14.774 2.639 14.81 2.588"/>
<path data-ink="pencil" stroke="#8a8a8a" stroke-width="0.124" d="M14.81 2.588 Q14.845 2.537 14.844 2.478"/>
<path data-ink="pencil" stroke="#8a8a8a" stroke-width="0.096" d="M14.844 2.478 Q14.843 2.418 14.883 2.367"/>
<path data-ink="pencil" stroke="#8a8a8a" stroke-width="0.11" d="M14.883 2.367 Q14.922 2.316 14.95 2.261"/>
<path data-ink="pencil" stroke="#8a8a8a" stroke-width="0.124" d="M14.95 2.261 Q14.978 2.205 15.04 2.161"/>
<path data-ink="pencil" stroke="#8a8a8a" stroke-width="0.096" d="M15.04 2.161 Q15.102 2.117 15.144 2.064"/>
<path data-ink="pencil" stroke="#8a8a8a" stroke-width="0.083" d="M15.144 2.064 Q15.185 2.011 15.251 1.969"/>
<path data-ink="pencil" stroke="#8a8a8a" stroke-width="0.11" d="M15.251 1.969 Q15.317 1.926 15.393 1.89"/>
<path data-ink="pencil" stroke="#8a8a8a" stroke-width="0.083" d="M15.393 1.89 Q15.468 1.853 15.542 1.816"/>
<path data-ink="pencil" stroke="#8a8a8a" stroke-width="0.096" d="M15.542 1.816 Q15.615 1.778 15.691 1.742"/>
<path data-ink="pencil" stroke="#8a8a8a" stroke-width="0.069" d="M15.691 1.742 Q15.766 1.705 15.846 1.672 Q15.927 1.64 16.02 1.621"/>
<path data-ink="pencil" stroke="#8a8a8a" stroke-width="0.124" d="M16.02 1.621 Q16.113 1.602 16.209 1.589"/>
<path data-ink="pencil" stroke="#8a8a8a" stroke-width="0.083" d="M16.209 1.589 Q16.304 1.575 16.388 1.545"/>
<path data-ink="pencil" stroke="#8a8a8a" stroke-width="0.096" d="M16.388 1.545 Q16.471 1.514 16.574 1.521"/>
<path data-ink="pencil" stroke="#8a8a8a" stroke-width="0.11" d="M16.574 1.521 Q16.677 1.528 16.766 1.506 Q16.855 1.483 16.952 1.486"/>
<path data-ink="pencil" stroke="#8a8a8a" stroke-width="0.096" d="M16.952 1.486 Q17.048 1.488 17.143 1.496"/>
<path data-ink="pencil" stroke="#8a8a8a" stroke-width="0.11" d="M17.143 1.496 Q17.237 1.504 17.33 1.51 Q17.422 1.515 17.512 1.531 Q17.602 1.546 17.696 1.542 Q17.79 1.538 17.873 1.567"/>
<path data-ink="pencil" stroke="#8a8a8a" stroke-width="0.138" d="M17.873 1.567 Q17.955 1.595 18.038 1.616"/>
<path data-ink="pencil" stroke="#8a8a8a" stroke-width="0.124" d="M18.038 1.616 Q18.121 1.638 18.219 1.639"/>
<path data-ink="pencil" stroke="#8a8a8a" stroke-width="0.138" d="M18.219 1.639 Q18.316 1.639 18.408 1.653 Q18.499 1.667 18.56 1.714 Q18.62 1.761 18.708 1.78"/>
<path data-ink="pencil" stroke="#8a8a8a" stroke-width="0.151" d="M18.708 1.78 Q18.796 1.799 18.865 1.835"/>
<path data-ink="pencil" stroke="#8a8a8a" stroke-width="0.124" d="M18.865 1.835 Q18.935 1.87 19.03 1.89"/>
<path data-ink="pencil" stroke="#8a8a8a" stroke-width="0.138" d="M19.03 1.89 Q19.125 1.91 19.19 1.951"/>
<path data-ink="pencil" stroke="#8a8a8a" stroke-width="0.165" d="M19.19 1.951 Q19.254 1.991 19.318 2.032"/>
<path data-ink="pencil" stroke="#8a8a8a" stroke-width="0.138" d="M19.318 2.032 Q19.381 2.073 19.438 2.117 Q19.495 2.162 19.578 2.199"/>
<path data-ink="pencil" stroke="#8a8a8a" stroke-width="0.124" d="M19.578 2.199 Q19.66 2.235 19.722 2.282"/>
<path data-ink="pencil" stroke="#8a8a8a" stroke-width="0.138" d="M19.722 2.282 Q19.784 2.328 19.764 2.394"/>
<path data-ink="pencil" stroke="#8a8a8a" stroke-width="0.124" d="M19.764 2.394 Q19.744 2.46 19.8 2.508 Q19.855 2.557 19.901 2.609"/>
<path data-ink="pencil" stroke="#8a8a8a" stroke-width="0.138" d="M19.901 2.609 Q19.946 2.661 19.964 2.718 Q19.981 2.774 20.027 2.83"/>
<path data-ink="pencil" stroke="#8a8a8a" stroke-width="0.124" d="M20.027 2.83 Q20.072 2.885 20.022 2.944 Q19.972 3.002 20.014 3.061"/>
<path data-ink="pencil" stroke="#8a8a8a" stroke-width="0.138" d="M20.014 3.061 Q20.056 3.119 19.953 3.17"/>
<path data-ink="pencil" stroke="#8a8a8a" stroke-width="0.11" d="M19.953 3.17 Q19.849 3.22 19.819 3.272"/>
<path data-ink="pencil" stroke="#8a8a8a" stroke-width="0.124" d="M19.819 3.272 Q19.789 3.324 19.799 3.382"/>
<path data-ink="pencil" stroke="#8a8a8a" stroke-width="0.11" d="M19.799 3.382 Q19.808 3.44 19.758 3.488 Q19.707 3.536 19.691 3.592"/>
<path data-ink="pencil" stroke="#8a8a8a" stroke-width="0.124" d="M19.691 3.592 Q19.675 3.647 19.587 3.682"/>
<path data-ink="pencil" stroke="#8a8a8a" stroke-width="0.11" d="M19.587 3.682 Q19.499 3.717 19.49 3.778 Q19.481 3.838 19.404 3.874 Q19.327 3.909 19.281 3.957"/>
<path data-ink="pencil" stroke="#8a8a8a" stroke-width="0.096" d="M19.281 3.957 Q19.234 4.005 19.13 4.021 Q19.025 4.037 18.963 4.075"/>
<path data-ink="pencil" stroke="#8a8a8a" stroke-width="0.11" d="M18.963 4.075 Q18.901 4.113 18.865 4.174"/>
<path data-ink="pencil" stroke="#8a8a8a" stroke-width="0.096" d="M18.865 4.174 Q18.829 4.235 18.73 4.247"/>
<path data-ink="pencil" stroke="#8a8a8a" stroke-width="0.083" d="M18.73 4.247 Q18.63 4.258 18.536 4.268 Q18.441 4.277 18.369 4.312 Q18.297 4.346 18.224 4.386"/>
<path data-ink="pencil" stroke="#8a8a8a" stroke-width="0.11" d="M18.224 4.386 Q18.151 4.425 18.063 4.445 Q17.975 4.464 17.876 4.453 Q17.776 4.442 17.697 4.504"/>
<path data-ink="pencil" stroke="#8a8a8a" stroke-width="0.096" d="M17.697 4.504 Q17.617 4.565 17.516 4.527"/>
<path data-ink="pencil" stroke="#8a8a8a" stroke-width="0.11" d="M17.516 4.527 Q17.415 4.488 17.321 4.534 Q17.226 4.579 17.13 4.56 Q17.035 4.54 16.938 4.542 Q16.84 4.543 16.743 4.536"/>
<path data-ink="pencil" stroke="#8a8a8a" stroke-width="0.124" d="M16.743 4.536 L16.645 4.529"/>
</g>
</svg>
