<svg xmlns="http://www.w3.org/2000/svg" viewBox="13.577 4.353 6.842 1.679" width="109.472" height="26.864">
<metadata id="zettelflow-ink">{"v":1,"strokes":[{"c":"pencil","t":"pen","pts":[[14.153,5.649,0.4,1.262,0],[14.933,5.654,0.424,1.074,17],[16.123,5.663,0.429,1.079,23],[17.476,5.673,0.506,1.15,32],[18.749,5.68,0.477,0.919,42],[19.694,5.679,0.548,1.115,51],[20.067,5.668,0.575,0.939,58],[19.639,5.641,0.629,1.052,67],[18.562,5.601,0.534,1.069,75],[17.158,5.554,0.681,1.259,83],[15.749,5.506,0.694,1.1,89],[14.657,5.464,0.559,1.155,95],[14.205,5.435,0.646,1.195,105],[14.604,5.423,0.413,1.016,113],[15.637,5.422,0.569,1.071,120],[16.987,5.427,0.59,1.033,131],[18.338,5.432,0.613,0.943,141],[19.372,5.432,0.591,0.996,149],[19.772,5.421,0.467,1.15,157],[19.319,5.396,0.451,0.901,168],[18.226,5.36,0.459,1.053,174],[16.815,5.319,0.412,1.05,184],[15.412,5.277,0.4,0.907,193],[14.342,5.241,0.398,0.948,200],[13.929,5.213,0.371,1.293,207],[14.398,5.198,0.347,1.168,213],[15.534,5.191,0.294,1.007,223],[17.003,5.189,0.271,1.007,232],[18.47,5.188,0.23,1.007,243],[19.601,5.183,0.205,0.928,250],[20.063,5.171,0.349,1.036,261],[19.636,5.151,0.375,0.959,272],[18.543,5.125,0.118,0.995,278],[17.115,5.095,0.209,1.074,289],[15.681,5.065,0.333,0.959,298],[14.571,5.039,0.225,0.973,307],[14.115,5.018,0.349,1.263,318],[14.529,5.006,0.149,1.169,329],[15.589,5.001,0.238,1.078,336],[16.974,4.999,0.213,1.18,342],[18.36,4.996,0.3,1.036,350],[19.424,4.988,0.293,0.954,358],[19.843,4.972,0.399,1.012,366],[19.4,4.944,0.361,1.044,373],[18.308,4.906,0.4,1.155,380],[16.895,4.864,0.418,0.919,386],[15.486,4.822,0.483,1.169,396],[14.408,4.784,0.456,1,403],[13.989,4.756,0.512,1.099,412],[14.381,4.737,0.58,1.062,418],[15.355,4.725,0.419,0.958,428],[16.659,4.717,0.405,1.163,438],[18.045,4.712,0.623,1.156,449],[19.263,4.709,0.611,1.097,457],[20.061,4.705,0.508,1.237,463]]}]}</metadata>
<g fill="none" stroke-linecap="round" stroke-linejoin="round">
<path data-ink="pencil" stroke="#8a8a8a" stroke-width="0.11" d="M14.153 5.649 L14.543 5.652"/>
<path data-ink="pencil" stroke="#8a8a8a" stroke-width="0.124" d="M14.543 5.652 Q14.933 5.654 15.528 5.659 Q16.123 5.663 16.8 5.668"/>
<path data-ink="pencil" stroke="#8a8a8a" stroke-width="0.138" d="M16.8 5.668 Q17.476 5.673 18.112 5.677 Q18.749 5.68 19.222 5.68 Q19.694 5.679 19.88 5.674"/>
<path data-ink="pencil" stroke="#8a8a8a" stroke-width="0.165" d="M19.88 5.674 Q20.067 5.668 19.853 5.655 Q19.639 5.641 19.101 5.621"/>
<path data-ink="pencil" stroke="#8a8a8a" stroke-width="0.138" d="M19.101 5.621 Q18.562 5.601 17.86 5.578"/>
<path data-ink="pencil" stroke="#8a8a8a" stroke-width="0.151" d="M17.86 5.578 Q17.158 5.554 16.454 5.53"/>
<path data-ink="pencil" stroke="#8a8a8a" stroke-width="0.165" d="M16.454 5.53 Q15.749 5.506 15.203 5.485"/>
<path data-ink="pencil" stroke="#8a8a8a" stroke-width="0.138" d="M15.203 5.485 Q14.657 5.464 14.431 5.45"/>
<path data-ink="pencil" stroke="#8a8a8a" stroke-width="0.151" d="M14.431 5.45 Q14.205 5.435 14.404 5.429"/>
<path data-ink="pencil" stroke="#8a8a8a" stroke-width="0.124" d="M14.404 5.429 Q14.604 5.423 15.121 5.422"/>
<path data-ink="pencil" stroke="#8a8a8a" stroke-width="0.151" d="M15.121 5.422 Q15.637 5.422 16.312 5.425 Q16.987 5.427 17.663 5.43"/>
<path data-ink="pencil" stroke="#8a8a8a" stroke-width="0.165" d="M17.663 5.43 Q18.338 5.432 18.855 5.432"/>
<path data-ink="pencil" stroke="#8a8a8a" stroke-width="0.151" d="M18.855 5.432 Q19.372 5.432 19.572 5.427"/>
<path data-ink="pencil" stroke="#8a8a8a" stroke-width="0.124" d="M19.572 5.427 Q19.772 5.421 19.545 5.409"/>
<path data-ink="pencil" stroke="#8a8a8a" stroke-width="0.138" d="M19.545 5.409 Q19.319 5.396 18.773 5.378 Q18.226 5.36 17.521 5.34"/>
<path data-ink="pencil" stroke="#8a8a8a" stroke-width="0.124" d="M17.521 5.34 Q16.815 5.319 16.114 5.298 Q15.412 5.277 14.877 5.259 Q14.342 5.241 14.136 5.227"/>
<path data-ink="pencil" stroke="#8a8a8a" stroke-width="0.11" d="M14.136 5.227 Q13.929 5.213 14.164 5.206 Q14.398 5.198 14.966 5.195 Q15.534 5.191 16.269 5.19"/>
<path data-ink="pencil" stroke="#8a8a8a" stroke-width="0.096" d="M16.269 5.19 Q17.003 5.189 17.737 5.188 Q18.47 5.188 19.036 5.185 Q19.601 5.183 19.832 5.177"/>
<path data-ink="pencil" stroke="#8a8a8a" stroke-width="0.11" d="M19.832 5.177 Q20.063 5.171 19.85 5.161"/>
<path data-ink="pencil" stroke="#8a8a8a" stroke-width="0.124" d="M19.85 5.161 Q19.636 5.151 19.09 5.138"/>
<path data-ink="pencil" stroke="#8a8a8a" stroke-width="0.083" d="M19.09 5.138 Q18.543 5.125 17.829 5.11"/>
<path data-ink="pencil" stroke="#8a8a8a" stroke-width="0.096" d="M17.829 5.11 Q17.115 5.095 16.398 5.08"/>
<path data-ink="pencil" stroke="#8a8a8a" stroke-width="0.11" d="M16.398 5.08 Q15.681 5.065 15.126 5.052"/>
<path data-ink="pencil" stroke="#8a8a8a" stroke-width="0.096" d="M15.126 5.052 Q14.571 5.039 14.343 5.028"/>
<path data-ink="pencil" stroke="#8a8a8a" stroke-width="0.11" d="M14.343 5.028 Q14.115 5.018 14.322 5.012"/>
<path data-ink="pencil" stroke="#8a8a8a" stroke-width="0.083" d="M14.322 5.012 Q14.529 5.006 15.059 5.004"/>
<path data-ink="pencil" stroke="#8a8a8a" stroke-width="0.096" d="M15.059 5.004 Q15.589 5.001 16.282 5"/>
<path data-ink="pencil" stroke="#8a8a8a" stroke-width="0.083" d="M16.282 5 Q16.974 4.999 17.667 4.998"/>
<path data-ink="pencil" stroke="#8a8a8a" stroke-width="0.11" d="M17.667 4.998 Q18.36 4.996 18.892 4.992 Q19.424 4.988 19.633 4.98"/>
<path data-ink="pencil" stroke="#8a8a8a" stroke-width="0.124" d="M19.633 4.98 Q19.843 4.972 19.621 4.958"/>
<path data-ink="pencil" stroke="#8a8a8a" stroke-width="0.11" d="M19.621 4.958 Q19.4 4.944 18.854 4.925"/>
<path data-ink="pencil" stroke="#8a8a8a" stroke-width="0.124" d="M18.854 4.925 Q18.308 4.906 17.602 4.885"/>
<path data-ink="pencil" stroke="#8a8a8a" stroke-width="0.138" d="M17.602 4.885 Q16.895 4.864 16.191 4.843"/>
<path data-ink="pencil" stroke="#8a8a8a" stroke-width="0.124" d="M16.191 4.843 Q15.486 4.822 14.947 4.803"/>
<path data-ink="pencil" stroke="#8a8a8a" stroke-width="0.138" d="M14.947 4.803 Q14.408 4.784 14.199 4.77 Q13.989 4.756 14.185 4.747"/>
<path data-ink="pencil" stroke="#8a8a8a" stroke-width="0.151" d="M14.185 4.747 Q14.381 4.737 14.868 4.731"/>
<path data-ink="pencil" stroke="#8a8a8a" stroke-width="0.124" d="M14.868 4.731 Q15.355 4.725 16.007 4.721 Q16.659 4.717 17.352 4.714"/>
<path data-ink="pencil" stroke="#8a8a8a" stroke-width="0.151" d="M17.352 4.714 Q18.045 4.712 18.654 4.711 Q19.263 4.709 19.662 4.707"/>
<path data-ink="pencil" stroke="#8a8a8a" stroke-width="0.124" d="M19.662 4.707 L20.061 4.705"/>
</g>
</svg>
